# 3ds Max Wavefront OBJ Exporter v0.97b - (c)2007 guruware
# File Created: 14.01.2019 21:45:36

mtllib health.mtl

#
# object Cylinder001
#

v  0.0000 0.0000 -0.0000
v  19.2248 -4.2317 -0.0000
v  19.6850 0.0000 -0.0000
v  17.8657 -8.2655 -0.0000
v  15.6711 -11.9129 -0.0000
v  12.7438 -15.0032 -0.0000
v  9.2206 -17.3920 -0.0000
v  5.2663 -18.9675 -0.0000
v  1.0657 -19.6562 -0.0000
v  -3.1847 -19.4257 -0.0000
v  -7.2862 -18.2869 -0.0000
v  -11.0470 -16.2931 -0.0000
v  -14.2913 -13.5374 -0.0000
v  -16.8673 -10.1487 -0.0000
v  -18.6546 -6.2855 -0.0000
v  -19.5696 -2.1283 -0.0000
v  -19.5696 2.1283 0.0000
v  -18.6546 6.2855 0.0000
v  -16.8673 10.1487 0.0000
v  -14.2913 13.5374 0.0000
v  -11.0470 16.2931 0.0000
v  -7.2862 18.2869 0.0000
v  -3.1847 19.4257 0.0000
v  1.0657 19.6562 0.0000
v  5.2663 18.9675 0.0000
v  9.2206 17.3920 0.0000
v  12.7438 15.0032 0.0000
v  15.6711 11.9129 0.0000
v  17.8656 8.2656 0.0000
v  19.2248 4.2317 0.0000
v  19.2248 -4.2317 -0.1969
v  19.6850 0.0000 -0.1969
v  17.8657 -8.2655 -0.1969
v  15.6711 -11.9129 -0.1969
v  12.7438 -15.0032 -0.1969
v  9.2206 -17.3920 -0.1969
v  5.2663 -18.9675 -0.1969
v  1.0657 -19.6562 -0.1969
v  -3.1847 -19.4257 -0.1969
v  -7.2862 -18.2869 -0.1969
v  -11.0470 -16.2931 -0.1969
v  -14.2913 -13.5374 -0.1969
v  -16.8673 -10.1487 -0.1969
v  -18.6546 -6.2855 -0.1969
v  -19.5696 -2.1283 -0.1969
v  -19.5696 2.1283 -0.1969
v  -18.6546 6.2855 -0.1968
v  -16.8673 10.1487 -0.1968
v  -14.2913 13.5374 -0.1968
v  -11.0470 16.2931 -0.1968
v  -7.2862 18.2869 -0.1968
v  -3.1847 19.4257 -0.1968
v  1.0657 19.6562 -0.1968
v  5.2663 18.9675 -0.1968
v  9.2206 17.3920 -0.1968
v  12.7438 15.0032 -0.1968
v  15.6711 11.9129 -0.1968
v  17.8656 8.2656 -0.1968
v  19.2248 4.2317 -0.1969
v  19.2248 -4.2317 -0.3937
v  19.6850 0.0000 -0.3937
v  17.8657 -8.2655 -0.3937
v  15.6711 -11.9129 -0.3937
v  12.7438 -15.0032 -0.3937
v  9.2206 -17.3920 -0.3937
v  5.2663 -18.9675 -0.3937
v  1.0657 -19.6562 -0.3937
v  -3.1847 -19.4257 -0.3937
v  -7.2862 -18.2869 -0.3937
v  -11.0470 -16.2931 -0.3937
v  -14.2913 -13.5374 -0.3937
v  -16.8673 -10.1487 -0.3937
v  -18.6546 -6.2855 -0.3937
v  -19.5696 -2.1283 -0.3937
v  -19.5696 2.1283 -0.3937
v  -18.6546 6.2855 -0.3937
v  -16.8673 10.1487 -0.3937
v  -14.2913 13.5374 -0.3937
v  -11.0470 16.2931 -0.3937
v  -7.2862 18.2869 -0.3937
v  -3.1847 19.4257 -0.3937
v  1.0657 19.6562 -0.3937
v  5.2663 18.9675 -0.3937
v  9.2206 17.3920 -0.3937
v  12.7438 15.0032 -0.3937
v  15.6711 11.9129 -0.3937
v  17.8656 8.2656 -0.3937
v  19.2248 4.2317 -0.3937
v  19.2248 -4.2317 -0.5906
v  19.6850 0.0000 -0.5906
v  17.8657 -8.2655 -0.5906
v  15.6711 -11.9129 -0.5906
v  12.7438 -15.0032 -0.5906
v  9.2206 -17.3920 -0.5906
v  5.2663 -18.9675 -0.5906
v  1.0657 -19.6562 -0.5906
v  -3.1847 -19.4257 -0.5906
v  -7.2862 -18.2869 -0.5906
v  -11.0470 -16.2931 -0.5906
v  -14.2913 -13.5374 -0.5906
v  -16.8673 -10.1487 -0.5906
v  -18.6546 -6.2855 -0.5906
v  -19.5696 -2.1283 -0.5906
v  -19.5696 2.1283 -0.5906
v  -18.6546 6.2855 -0.5906
v  -16.8673 10.1487 -0.5906
v  -14.2913 13.5374 -0.5906
v  -11.0470 16.2931 -0.5905
v  -7.2862 18.2869 -0.5905
v  -3.1847 19.4257 -0.5905
v  1.0657 19.6562 -0.5905
v  5.2663 18.9675 -0.5905
v  9.2206 17.3920 -0.5905
v  12.7438 15.0032 -0.5906
v  15.6711 11.9129 -0.5906
v  17.8656 8.2656 -0.5906
v  19.2248 4.2317 -0.5906
v  19.2248 -4.2317 -0.7874
v  19.6850 0.0000 -0.7874
v  17.8657 -8.2655 -0.7874
v  15.6711 -11.9129 -0.7874
v  12.7438 -15.0032 -0.7874
v  9.2206 -17.3920 -0.7874
v  5.2663 -18.9675 -0.7874
v  1.0657 -19.6562 -0.7874
v  -3.1847 -19.4257 -0.7874
v  -7.2862 -18.2869 -0.7874
v  -11.0470 -16.2931 -0.7874
v  -14.2913 -13.5374 -0.7874
v  -16.8673 -10.1487 -0.7874
v  -18.6546 -6.2855 -0.7874
v  -19.5696 -2.1283 -0.7874
v  -19.5696 2.1283 -0.7874
v  -18.6546 6.2855 -0.7874
v  -16.8673 10.1487 -0.7874
v  -14.2913 13.5374 -0.7874
v  -11.0470 16.2931 -0.7874
v  -7.2862 18.2869 -0.7874
v  -3.1847 19.4257 -0.7874
v  1.0657 19.6562 -0.7874
v  5.2663 18.9675 -0.7874
v  9.2206 17.3920 -0.7874
v  12.7438 15.0032 -0.7874
v  15.6711 11.9129 -0.7874
v  17.8656 8.2656 -0.7874
v  19.2248 4.2317 -0.7874
v  0.0000 0.0000 -0.7874
# 147 vertices

vn 0.0000 -0.0000 1.0000
vn 0.7128 -0.1569 0.6836
vn 0.7299 0.0000 0.6836
vn 0.6624 -0.3065 0.6836
vn 0.5811 -0.4417 0.6836
vn 0.4725 -0.5563 0.6836
vn 0.3419 -0.6449 0.6836
vn 0.1953 -0.7033 0.6836
vn 0.0395 -0.7288 0.6836
vn -0.1181 -0.7203 0.6836
vn -0.2702 -0.6781 0.6836
vn -0.4096 -0.6041 0.6836
vn -0.5299 -0.5019 0.6836
vn -0.6254 -0.3763 0.6836
vn -0.6917 -0.2331 0.6836
vn -0.7256 -0.0789 0.6836
vn -0.7256 0.0789 0.6836
vn -0.6917 0.2331 0.6836
vn -0.6254 0.3763 0.6836
vn -0.5299 0.5019 0.6836
vn -0.4096 0.6041 0.6836
vn -0.2702 0.6781 0.6836
vn -0.1181 0.7203 0.6836
vn 0.0395 0.7288 0.6836
vn 0.1953 0.7033 0.6836
vn 0.3419 0.6449 0.6836
vn 0.4725 0.5563 0.6836
vn 0.5811 0.4417 0.6836
vn 0.6624 0.3065 0.6836
vn 0.7128 0.1569 0.6836
vn 0.9766 -0.2150 -0.0000
vn 1.0000 0.0000 0.0000
vn 0.9076 -0.4199 -0.0000
vn 0.7961 -0.6052 -0.0000
vn 0.6474 -0.7622 -0.0000
vn 0.4684 -0.8835 -0.0000
vn 0.2675 -0.9636 -0.0000
vn 0.0541 -0.9985 -0.0000
vn -0.1618 -0.9868 -0.0000
vn -0.3701 -0.9290 -0.0000
vn -0.5612 -0.8277 -0.0000
vn -0.7260 -0.6877 -0.0000
vn -0.8569 -0.5156 -0.0000
vn -0.9477 -0.3193 -0.0000
vn -0.9941 -0.1081 -0.0000
vn -0.9941 0.1081 0.0000
vn -0.9477 0.3193 0.0000
vn -0.8569 0.5156 0.0000
vn -0.7260 0.6877 0.0000
vn -0.5612 0.8277 0.0000
vn -0.3701 0.9290 0.0000
vn -0.1618 0.9868 0.0000
vn 0.0541 0.9985 0.0000
vn 0.2675 0.9636 0.0000
vn 0.4684 0.8835 0.0000
vn 0.6474 0.7622 0.0000
vn 0.7961 0.6052 0.0000
vn 0.9076 0.4199 0.0000
vn 0.9766 0.2150 0.0000
vn 0.7128 -0.1569 -0.6836
vn 0.7299 0.0000 -0.6836
vn 0.6624 -0.3065 -0.6836
vn 0.5811 -0.4417 -0.6836
vn 0.4725 -0.5563 -0.6836
vn 0.3419 -0.6449 -0.6836
vn 0.1953 -0.7033 -0.6836
vn 0.0395 -0.7288 -0.6836
vn -0.1181 -0.7203 -0.6836
vn -0.2702 -0.6781 -0.6836
vn -0.4096 -0.6041 -0.6836
vn -0.5299 -0.5019 -0.6836
vn -0.6254 -0.3763 -0.6836
vn -0.6917 -0.2331 -0.6836
vn -0.7256 -0.0789 -0.6836
vn -0.7256 0.0789 -0.6836
vn -0.6917 0.2331 -0.6836
vn -0.6254 0.3763 -0.6836
vn -0.5299 0.5019 -0.6836
vn -0.4096 0.6041 -0.6836
vn -0.2702 0.6781 -0.6836
vn -0.1181 0.7203 -0.6836
vn 0.0395 0.7288 -0.6836
vn 0.1953 0.7033 -0.6836
vn 0.3419 0.6449 -0.6836
vn 0.4725 0.5563 -0.6836
vn 0.5811 0.4417 -0.6836
vn 0.6624 0.3065 -0.6836
vn 0.7128 0.1569 -0.6836
vn 0.0000 0.0000 -1.0000
# 89 vertex normals

vt 0.4985 0.5000 0.0000
vt 0.9883 0.6076 0.0000
vt 1.0000 0.5000 0.0000
vt 0.9537 0.7103 0.0000
vt 0.8977 0.8030 0.0000
vt 0.8232 0.8816 0.0000
vt 0.7334 0.9424 0.0000
vt 0.6327 0.9825 0.0000
vt 0.5257 1.0000 0.0000
vt 0.4174 0.9941 0.0000
vt 0.3129 0.9652 0.0000
vt 0.2171 0.9145 0.0000
vt 0.1345 0.8444 0.0000
vt 0.0688 0.7582 0.0000
vt 0.0233 0.6599 0.0000
vt 0.0000 0.5541 0.0000
vt 0.0000 0.4459 0.0000
vt 0.0233 0.3401 0.0000
vt 0.0688 0.2418 0.0000
vt 0.1345 0.1556 0.0000
vt 0.2171 0.0855 0.0000
vt 0.3129 0.0348 0.0000
vt 0.4174 0.0059 0.0000
vt 0.5257 -0.0000 0.0000
vt 0.6327 0.0175 0.0000
vt 0.7334 0.0576 0.0000
vt 0.8232 0.1184 0.0000
vt 0.8977 0.1970 0.0000
vt 0.9537 0.2897 0.0000
vt 0.9883 0.3924 0.0000
vt 0.9883 0.6076 0.2500
vt 1.0000 0.5000 0.2500
vt 0.9537 0.7103 0.2500
vt 0.8977 0.8030 0.2500
vt 0.8232 0.8816 0.2500
vt 0.7334 0.9424 0.2500
vt 0.6327 0.9825 0.2500
vt 0.5257 1.0000 0.2500
vt 0.4174 0.9941 0.2500
vt 0.3129 0.9652 0.2500
vt 0.2171 0.9145 0.2500
vt 0.1345 0.8444 0.2500
vt 0.0688 0.7582 0.2500
vt 0.0233 0.6599 0.2500
vt 0.0000 0.5541 0.2500
vt 0.0000 0.4459 0.2500
vt 0.0233 0.3401 0.2500
vt 0.0688 0.2418 0.2500
vt 0.1345 0.1556 0.2500
vt 0.2171 0.0855 0.2500
vt 0.3129 0.0348 0.2500
vt 0.4174 0.0059 0.2500
vt 0.5257 -0.0000 0.2500
vt 0.6327 0.0175 0.2500
vt 0.7334 0.0576 0.2500
vt 0.8232 0.1184 0.2500
vt 0.8977 0.1970 0.2500
vt 0.9537 0.2897 0.2500
vt 0.9883 0.3924 0.2500
vt 0.9883 0.6076 0.5000
vt 1.0000 0.5000 0.5000
vt 0.9537 0.7103 0.5000
vt 0.8977 0.8030 0.5000
vt 0.8232 0.8816 0.5000
vt 0.7334 0.9424 0.5000
vt 0.6327 0.9825 0.5000
vt 0.5257 1.0000 0.5000
vt 0.4174 0.9941 0.5000
vt 0.3129 0.9652 0.5000
vt 0.2171 0.9145 0.5000
vt 0.1345 0.8444 0.5000
vt 0.0688 0.7582 0.5000
vt 0.0233 0.6599 0.5000
vt 0.0000 0.5541 0.5000
vt 0.0000 0.4459 0.5000
vt 0.0233 0.3401 0.5000
vt 0.0688 0.2418 0.5000
vt 0.1345 0.1556 0.5000
vt 0.2171 0.0855 0.5000
vt 0.3129 0.0348 0.5000
vt 0.4174 0.0059 0.5000
vt 0.5257 -0.0000 0.5000
vt 0.6327 0.0175 0.5000
vt 0.7334 0.0576 0.5000
vt 0.8232 0.1184 0.5000
vt 0.8977 0.1970 0.5000
vt 0.9537 0.2897 0.5000
vt 0.9883 0.3924 0.5000
vt 0.9883 0.6076 0.7500
vt 1.0000 0.5000 0.7500
vt 0.9537 0.7103 0.7500
vt 0.8977 0.8030 0.7500
vt 0.8232 0.8816 0.7500
vt 0.7334 0.9424 0.7500
vt 0.6327 0.9825 0.7500
vt 0.5257 1.0000 0.7500
vt 0.4174 0.9941 0.7500
vt 0.3129 0.9652 0.7500
vt 0.2171 0.9145 0.7500
vt 0.1345 0.8444 0.7500
vt 0.0688 0.7582 0.7500
vt 0.0233 0.6599 0.7500
vt 0.0000 0.5541 0.7500
vt 0.0000 0.4459 0.7500
vt 0.0233 0.3401 0.7500
vt 0.0688 0.2418 0.7500
vt 0.1345 0.1556 0.7500
vt 0.2171 0.0855 0.7500
vt 0.3129 0.0348 0.7500
vt 0.4174 0.0059 0.7500
vt 0.5257 -0.0000 0.7500
vt 0.6327 0.0175 0.7500
vt 0.7334 0.0576 0.7500
vt 0.8232 0.1184 0.7500
vt 0.8977 0.1970 0.7500
vt 0.9537 0.2897 0.7500
vt 0.9883 0.3924 0.7500
vt 0.9883 0.6076 1.0000
vt 1.0000 0.5000 1.0000
vt 0.9537 0.7103 1.0000
vt 0.8977 0.8030 1.0000
vt 0.8232 0.8816 1.0000
vt 0.7334 0.9424 1.0000
vt 0.6327 0.9825 1.0000
vt 0.5257 1.0000 1.0000
vt 0.4174 0.9941 1.0000
vt 0.3129 0.9652 1.0000
vt 0.2171 0.9145 1.0000
vt 0.1345 0.8444 1.0000
vt 0.0688 0.7582 1.0000
vt 0.0233 0.6599 1.0000
vt 0.0000 0.5541 1.0000
vt 0.0000 0.4459 1.0000
vt 0.0233 0.3401 1.0000
vt 0.0688 0.2418 1.0000
vt 0.1345 0.1556 1.0000
vt 0.2171 0.0855 1.0000
vt 0.3129 0.0348 1.0000
vt 0.4174 0.0059 1.0000
vt 0.5257 -0.0000 1.0000
vt 0.6327 0.0175 1.0000
vt 0.7334 0.0576 1.0000
vt 0.8232 0.1184 1.0000
vt 0.8977 0.1970 1.0000
vt 0.9537 0.2897 1.0000
vt 0.9883 0.3924 1.0000
vt 0.4985 0.5000 1.0000
# 147 texture coords

o Cylinder001
g Cylinder001
usemtl 02___Default
s 4
f 1/1/1 2/2/2 3/3/3 
f 1/1/1 4/4/4 2/2/2 
f 1/1/1 5/5/5 4/4/4 
f 1/1/1 6/6/6 5/5/5 
f 1/1/1 7/7/7 6/6/6 
f 1/1/1 8/8/8 7/7/7 
f 1/1/1 9/9/9 8/8/8 
f 1/1/1 10/10/10 9/9/9 
f 1/1/1 11/11/11 10/10/10 
f 1/1/1 12/12/12 11/11/11 
f 1/1/1 13/13/13 12/12/12 
f 1/1/1 14/14/14 13/13/13 
f 1/1/1 15/15/15 14/14/14 
f 1/1/1 16/16/16 15/15/15 
f 1/1/1 17/17/17 16/16/16 
f 1/1/1 18/18/18 17/17/17 
f 1/1/1 19/19/19 18/18/18 
f 1/1/1 20/20/20 19/19/19 
f 1/1/1 21/21/21 20/20/20 
f 1/1/1 22/22/22 21/21/21 
f 1/1/1 23/23/23 22/22/22 
f 1/1/1 24/24/24 23/23/23 
f 1/1/1 25/25/25 24/24/24 
f 1/1/1 26/26/26 25/25/25 
f 1/1/1 27/27/27 26/26/26 
f 1/1/1 28/28/28 27/27/27 
f 1/1/1 29/29/29 28/28/28 
f 1/1/1 30/30/30 29/29/29 
f 1/1/1 3/3/3 30/30/30 
f 3/3/3 31/31/31 32/32/32 
f 3/3/3 2/2/2 31/31/31 
f 2/2/2 33/33/33 31/31/31 
f 2/2/2 4/4/4 33/33/33 
f 4/4/4 34/34/34 33/33/33 
f 4/4/4 5/5/5 34/34/34 
f 5/5/5 35/35/35 34/34/34 
f 5/5/5 6/6/6 35/35/35 
f 6/6/6 36/36/36 35/35/35 
f 6/6/6 7/7/7 36/36/36 
f 7/7/7 37/37/37 36/36/36 
f 7/7/7 8/8/8 37/37/37 
f 8/8/8 38/38/38 37/37/37 
f 8/8/8 9/9/9 38/38/38 
f 9/9/9 39/39/39 38/38/38 
f 9/9/9 10/10/10 39/39/39 
f 10/10/10 40/40/40 39/39/39 
f 10/10/10 11/11/11 40/40/40 
f 11/11/11 41/41/41 40/40/40 
f 11/11/11 12/12/12 41/41/41 
f 12/12/12 42/42/42 41/41/41 
f 12/12/12 13/13/13 42/42/42 
f 13/13/13 43/43/43 42/42/42 
f 13/13/13 14/14/14 43/43/43 
f 14/14/14 44/44/44 43/43/43 
f 14/14/14 15/15/15 44/44/44 
f 15/15/15 45/45/45 44/44/44 
f 15/15/15 16/16/16 45/45/45 
f 16/16/16 46/46/46 45/45/45 
f 16/16/16 17/17/17 46/46/46 
f 17/17/17 47/47/47 46/46/46 
f 17/17/17 18/18/18 47/47/47 
f 18/18/18 48/48/48 47/47/47 
f 18/18/18 19/19/19 48/48/48 
f 19/19/19 49/49/49 48/48/48 
f 19/19/19 20/20/20 49/49/49 
f 20/20/20 50/50/50 49/49/49 
f 20/20/20 21/21/21 50/50/50 
f 21/21/21 51/51/51 50/50/50 
f 21/21/21 22/22/22 51/51/51 
f 22/22/22 52/52/52 51/51/51 
f 22/22/22 23/23/23 52/52/52 
f 23/23/23 53/53/53 52/52/52 
f 23/23/23 24/24/24 53/53/53 
f 24/24/24 54/54/54 53/53/53 
f 24/24/24 25/25/25 54/54/54 
f 25/25/25 55/55/55 54/54/54 
f 25/25/25 26/26/26 55/55/55 
f 26/26/26 56/56/56 55/55/55 
f 26/26/26 27/27/27 56/56/56 
f 27/27/27 57/57/57 56/56/56 
f 27/27/27 28/28/28 57/57/57 
f 28/28/28 58/58/58 57/57/57 
f 28/28/28 29/29/29 58/58/58 
f 29/29/29 59/59/59 58/58/58 
f 29/29/29 30/30/30 59/59/59 
f 30/30/30 32/32/32 59/59/59 
f 30/30/30 3/3/3 32/32/32 
f 32/32/32 60/60/31 61/61/32 
f 32/32/32 31/31/31 60/60/31 
f 31/31/31 62/62/33 60/60/31 
f 31/31/31 33/33/33 62/62/33 
f 33/33/33 63/63/34 62/62/33 
f 33/33/33 34/34/34 63/63/34 
f 34/34/34 64/64/35 63/63/34 
f 34/34/34 35/35/35 64/64/35 
f 35/35/35 65/65/36 64/64/35 
f 35/35/35 36/36/36 65/65/36 
f 36/36/36 66/66/37 65/65/36 
f 36/36/36 37/37/37 66/66/37 
f 37/37/37 67/67/38 66/66/37 
f 37/37/37 38/38/38 67/67/38 
f 38/38/38 68/68/39 67/67/38 
f 38/38/38 39/39/39 68/68/39 
f 39/39/39 69/69/40 68/68/39 
f 39/39/39 40/40/40 69/69/40 
f 40/40/40 70/70/41 69/69/40 
f 40/40/40 41/41/41 70/70/41 
f 41/41/41 71/71/42 70/70/41 
f 41/41/41 42/42/42 71/71/42 
f 42/42/42 72/72/43 71/71/42 
f 42/42/42 43/43/43 72/72/43 
f 43/43/43 73/73/44 72/72/43 
f 43/43/43 44/44/44 73/73/44 
f 44/44/44 74/74/45 73/73/44 
f 44/44/44 45/45/45 74/74/45 
f 45/45/45 75/75/46 74/74/45 
f 45/45/45 46/46/46 75/75/46 
f 46/46/46 76/76/47 75/75/46 
f 46/46/46 47/47/47 76/76/47 
f 47/47/47 77/77/48 76/76/47 
f 47/47/47 48/48/48 77/77/48 
f 48/48/48 78/78/49 77/77/48 
f 48/48/48 49/49/49 78/78/49 
f 49/49/49 79/79/50 78/78/49 
f 49/49/49 50/50/50 79/79/50 
f 50/50/50 80/80/51 79/79/50 
f 50/50/50 51/51/51 80/80/51 
f 51/51/51 81/81/52 80/80/51 
f 51/51/51 52/52/52 81/81/52 
f 52/52/52 82/82/53 81/81/52 
f 52/52/52 53/53/53 82/82/53 
f 53/53/53 83/83/54 82/82/53 
f 53/53/53 54/54/54 83/83/54 
f 54/54/54 84/84/55 83/83/54 
f 54/54/54 55/55/55 84/84/55 
f 55/55/55 85/85/56 84/84/55 
f 55/55/55 56/56/56 85/85/56 
f 56/56/56 86/86/57 85/85/56 
f 56/56/56 57/57/57 86/86/57 
f 57/57/57 87/87/58 86/86/57 
f 57/57/57 58/58/58 87/87/58 
f 58/58/58 88/88/59 87/87/58 
f 58/58/58 59/59/59 88/88/59 
f 59/59/59 61/61/32 88/88/59 
f 59/59/59 32/32/32 61/61/32 
f 61/61/32 89/89/31 90/90/32 
f 61/61/32 60/60/31 89/89/31 
f 60/60/31 91/91/33 89/89/31 
f 60/60/31 62/62/33 91/91/33 
f 62/62/33 92/92/34 91/91/33 
f 62/62/33 63/63/34 92/92/34 
f 63/63/34 93/93/35 92/92/34 
f 63/63/34 64/64/35 93/93/35 
f 64/64/35 94/94/36 93/93/35 
f 64/64/35 65/65/36 94/94/36 
f 65/65/36 95/95/37 94/94/36 
f 65/65/36 66/66/37 95/95/37 
f 66/66/37 96/96/38 95/95/37 
f 66/66/37 67/67/38 96/96/38 
f 67/67/38 97/97/39 96/96/38 
f 67/67/38 68/68/39 97/97/39 
f 68/68/39 98/98/40 97/97/39 
f 68/68/39 69/69/40 98/98/40 
f 69/69/40 99/99/41 98/98/40 
f 69/69/40 70/70/41 99/99/41 
f 70/70/41 100/100/42 99/99/41 
f 70/70/41 71/71/42 100/100/42 
f 71/71/42 101/101/43 100/100/42 
f 71/71/42 72/72/43 101/101/43 
f 72/72/43 102/102/44 101/101/43 
f 72/72/43 73/73/44 102/102/44 
f 73/73/44 103/103/45 102/102/44 
f 73/73/44 74/74/45 103/103/45 
f 74/74/45 104/104/46 103/103/45 
f 74/74/45 75/75/46 104/104/46 
f 75/75/46 105/105/47 104/104/46 
f 75/75/46 76/76/47 105/105/47 
f 76/76/47 106/106/48 105/105/47 
f 76/76/47 77/77/48 106/106/48 
f 77/77/48 107/107/49 106/106/48 
f 77/77/48 78/78/49 107/107/49 
f 78/78/49 108/108/50 107/107/49 
f 78/78/49 79/79/50 108/108/50 
f 79/79/50 109/109/51 108/108/50 
f 79/79/50 80/80/51 109/109/51 
f 80/80/51 110/110/52 109/109/51 
f 80/80/51 81/81/52 110/110/52 
f 81/81/52 111/111/53 110/110/52 
f 81/81/52 82/82/53 111/111/53 
f 82/82/53 112/112/54 111/111/53 
f 82/82/53 83/83/54 112/112/54 
f 83/83/54 113/113/55 112/112/54 
f 83/83/54 84/84/55 113/113/55 
f 84/84/55 114/114/56 113/113/55 
f 84/84/55 85/85/56 114/114/56 
f 85/85/56 115/115/57 114/114/56 
f 85/85/56 86/86/57 115/115/57 
f 86/86/57 116/116/58 115/115/57 
f 86/86/57 87/87/58 116/116/58 
f 87/87/58 117/117/59 116/116/58 
f 87/87/58 88/88/59 117/117/59 
f 88/88/59 90/90/32 117/117/59 
f 88/88/59 61/61/32 90/90/32 
f 90/90/32 118/118/60 119/119/61 
f 90/90/32 89/89/31 118/118/60 
f 89/89/31 120/120/62 118/118/60 
f 89/89/31 91/91/33 120/120/62 
f 91/91/33 121/121/63 120/120/62 
f 91/91/33 92/92/34 121/121/63 
f 92/92/34 122/122/64 121/121/63 
f 92/92/34 93/93/35 122/122/64 
f 93/93/35 123/123/65 122/122/64 
f 93/93/35 94/94/36 123/123/65 
f 94/94/36 124/124/66 123/123/65 
f 94/94/36 95/95/37 124/124/66 
f 95/95/37 125/125/67 124/124/66 
f 95/95/37 96/96/38 125/125/67 
f 96/96/38 126/126/68 125/125/67 
f 96/96/38 97/97/39 126/126/68 
f 97/97/39 127/127/69 126/126/68 
f 97/97/39 98/98/40 127/127/69 
f 98/98/40 128/128/70 127/127/69 
f 98/98/40 99/99/41 128/128/70 
f 99/99/41 129/129/71 128/128/70 
f 99/99/41 100/100/42 129/129/71 
f 100/100/42 130/130/72 129/129/71 
f 100/100/42 101/101/43 130/130/72 
f 101/101/43 131/131/73 130/130/72 
f 101/101/43 102/102/44 131/131/73 
f 102/102/44 132/132/74 131/131/73 
f 102/102/44 103/103/45 132/132/74 
f 103/103/45 133/133/75 132/132/74 
f 103/103/45 104/104/46 133/133/75 
f 104/104/46 134/134/76 133/133/75 
f 104/104/46 105/105/47 134/134/76 
f 105/105/47 135/135/77 134/134/76 
f 105/105/47 106/106/48 135/135/77 
f 106/106/48 136/136/78 135/135/77 
f 106/106/48 107/107/49 136/136/78 
f 107/107/49 137/137/79 136/136/78 
f 107/107/49 108/108/50 137/137/79 
f 108/108/50 138/138/80 137/137/79 
f 108/108/50 109/109/51 138/138/80 
f 109/109/51 139/139/81 138/138/80 
f 109/109/51 110/110/52 139/139/81 
f 110/110/52 140/140/82 139/139/81 
f 110/110/52 111/111/53 140/140/82 
f 111/111/53 141/141/83 140/140/82 
f 111/111/53 112/112/54 141/141/83 
f 112/112/54 142/142/84 141/141/83 
f 112/112/54 113/113/55 142/142/84 
f 113/113/55 143/143/85 142/142/84 
f 113/113/55 114/114/56 143/143/85 
f 114/114/56 144/144/86 143/143/85 
f 114/114/56 115/115/57 144/144/86 
f 115/115/57 145/145/87 144/144/86 
f 115/115/57 116/116/58 145/145/87 
f 116/116/58 146/146/88 145/145/87 
f 116/116/58 117/117/59 146/146/88 
f 117/117/59 119/119/61 146/146/88 
f 117/117/59 90/90/32 119/119/61 
f 147/147/89 119/119/61 118/118/60 
f 147/147/89 118/118/60 120/120/62 
f 147/147/89 120/120/62 121/121/63 
f 147/147/89 121/121/63 122/122/64 
f 147/147/89 122/122/64 123/123/65 
f 147/147/89 123/123/65 124/124/66 
f 147/147/89 124/124/66 125/125/67 
f 147/147/89 125/125/67 126/126/68 
f 147/147/89 126/126/68 127/127/69 
f 147/147/89 127/127/69 128/128/70 
f 147/147/89 128/128/70 129/129/71 
f 147/147/89 129/129/71 130/130/72 
f 147/147/89 130/130/72 131/131/73 
f 147/147/89 131/131/73 132/132/74 
f 147/147/89 132/132/74 133/133/75 
f 147/147/89 133/133/75 134/134/76 
f 147/147/89 134/134/76 135/135/77 
f 147/147/89 135/135/77 136/136/78 
f 147/147/89 136/136/78 137/137/79 
f 147/147/89 137/137/79 138/138/80 
f 147/147/89 138/138/80 139/139/81 
f 147/147/89 139/139/81 140/140/82 
f 147/147/89 140/140/82 141/141/83 
f 147/147/89 141/141/83 142/142/84 
f 147/147/89 142/142/84 143/143/85 
f 147/147/89 143/143/85 144/144/86 
f 147/147/89 144/144/86 145/145/87 
f 147/147/89 145/145/87 146/146/88 
f 147/147/89 146/146/88 119/119/61 
# 290 faces

